<?xml version="1.0" encoding="UTF-8"?>
<svg version="1.1" xmlns="http://www.w3.org/2000/svg" width="512" height="512">
    <path
        d="M0 0 C0.98226563 -0.06058594 1.96453125 -0.12117188 2.9765625 -0.18359375 C13.32770555 1.70816688 21.03811546 11.69254945 28.14672852 18.86865234 C29.40847868 20.13125002 30.67089236 21.39318491 31.93391418 22.6545105 C35.34084734 26.06058712 38.73848693 29.47579707 42.13446927 32.89278746 C45.69247332 36.46961543 49.2590425 40.03788243 52.82469177 43.60708618 C59.56654953 50.35824764 66.30072688 57.11701609 73.03214353 63.87858641 C80.69976945 71.57980853 88.3759718 79.27245781 96.05288804 86.96441722 C111.83645192 102.77929218 127.60927491 118.60484302 143.375 134.4375 C144.63440229 133.49694077 145.89324361 132.55563037 147.15185547 131.61401367 C147.85293427 131.08990402 148.55401306 130.56579437 149.27633667 130.02580261 C152.40043521 127.66143392 155.45116577 125.21015085 158.5 122.75 C163.45920297 118.76584785 168.43232924 114.80127525 173.4375 110.875 C174.01209961 110.42406982 174.58669922 109.97313965 175.17871094 109.50854492 C178.05031062 107.25649166 180.92466144 105.00799539 183.80078125 102.76171875 C190.06573896 97.86210937 196.27733654 92.90591044 202.4375 87.875 C208.2891174 83.09915571 214.19770349 78.41987062 220.21875 73.859375 C222.42041098 72.16998168 224.57723025 70.46453741 226.71875 68.703125 C234.46143772 62.3965628 241.80262425 57.62024895 252.23828125 58.0859375 C259.5841407 59.29457982 266.27999115 61.97856194 271.375 67.4375 C275.58049655 73.93482028 277.5568694 78.95990932 277.25059509 86.72877502 C277.21355141 87.85198171 277.21355141 87.85198171 277.17575938 88.99787945 C277.12142247 90.64239104 277.06484121 92.2868296 277.0063343 93.93119812 C276.84476387 98.50989219 276.70363311 103.08920202 276.5634613 107.66859436 C276.5333738 108.64748662 276.5032863 109.62637888 276.47228706 110.63493454 C276.06316245 124.36249694 275.86884168 138.09457386 275.67217159 151.8265543 C275.50626328 162.97631571 275.2627372 174.11408725 274.83422852 185.25708008 C274.3497417 198.13112048 274.06335843 210.99520712 274.08984375 223.87890625 C274.091893 224.91470715 274.09394225 225.95050805 274.0960536 227.01769686 C274.24636904 251.79935597 275.5371037 272.74867898 293.61683655 291.10716248 C301.7300737 298.93447774 310.70188928 305.66750737 320.375 311.4375 C334.66445418 294.07256221 338.98726031 268.83445968 336.91064453 246.9296875 C334.5701029 225.37826698 325.37141381 205.13991601 310.625 189.25 C305.34057288 183.47043916 302.7225493 178.72550489 303.0234375 170.7109375 C303.81763339 165.57513743 306.09957725 161.74739363 309.6875 158.0625 C315.13436705 154.76904551 320.04500997 153.97731147 326.25 154.91015625 C340.02862435 158.32948399 350.66428621 177.67841437 357.5625 189.0625 C365.52647667 203.55137747 370.48508831 219.20827844 373.375 235.4375 C373.66310547 236.99404297 373.66310547 236.99404297 373.95703125 238.58203125 C377.88031471 274.77157119 369.45774227 308.83194703 348.375 338.4375 C352.73033366 343.64378845 357.30395287 348.51347423 362.109375 353.3046875 C362.82861145 354.02488068 363.5478479 354.74507385 364.28887939 355.48709106 C365.79698983 356.99587764 367.30634632 358.50341967 368.81689453 360.00976562 C371.13560811 362.32308343 373.44888614 364.64174155 375.76171875 366.9609375 C377.23144996 368.43000859 378.70149096 369.89876982 380.171875 371.3671875 C381.21090973 372.40925858 381.21090973 372.40925858 382.27093506 373.47238159 C382.91210266 374.11039703 383.55327026 374.74841248 384.21386719 375.40576172 C384.77757019 375.96866913 385.34127319 376.53157654 385.92205811 377.11154175 C387.35705029 378.5421054 387.35705029 378.5421054 389.375 379.4375 C389.62507813 378.88964844 389.87515625 378.34179688 390.1328125 377.77734375 C391.61370095 374.98787147 393.3954217 372.55768766 395.25 370 C405.86021833 354.90194311 414.31064256 338.86131651 420.375 321.4375 C420.65569336 320.63521973 420.93638672 319.83293945 421.22558594 319.00634766 C437.12611924 272.5127388 434.5837455 219.03332429 413.29638672 174.57080078 C411.73312749 171.47919382 410.07033211 168.45931951 408.375 165.4375 C407.73186871 164.24413778 407.08994426 163.05012438 406.44921875 161.85546875 C398.19495913 146.70014089 387.55600538 133.70324746 376.09375 120.88671875 C375.4646875 120.18160156 374.835625 119.47648437 374.1875 118.75 C373.65769531 118.16863281 373.12789063 117.58726563 372.58203125 116.98828125 C369.05150805 112.45230161 369.78611859 105.84014458 370.375 100.4375 C372.02376789 95.6529913 374.70320707 92.4841052 379.0625 89.9375 C384.40665956 87.69315427 389.99795658 87.12944594 395.47265625 89.25 C414.53046288 100.16182567 428.76021191 124.70116475 439.375 143.4375 C439.7162793 144.02966309 440.05755859 144.62182617 440.40917969 145.23193359 C451.82918039 165.14863338 459.35984694 187.16290613 464.125 209.5625 C464.32375732 210.49094727 464.52251465 211.41939453 464.72729492 212.37597656 C467.69526903 227.06700315 468.76028355 241.60801123 468.6875 256.5625 C468.68534485 257.36731812 468.6831897 258.17213623 468.68096924 259.00134277 C468.44882772 313.31172318 449.20997425 363.28374583 415.375 405.4375 C419.4902463 410.34816706 423.76730077 414.95707993 428.32666016 419.45507812 C428.99410751 420.11785263 429.66155487 420.78062714 430.34922791 421.46348572 C431.78696652 422.89078789 433.22580322 424.31698464 434.66563797 425.74217224 C436.9470872 428.00145381 439.22442342 430.26480579 441.50057983 432.52941895 C447.96847707 438.96385305 454.44051858 445.39407185 460.92285156 451.81396484 C464.89789182 455.75129536 468.86553033 459.69595656 472.82856369 463.64537048 C474.33523151 465.14400498 475.84466753 466.63986193 477.35695267 468.13282776 C479.47232668 470.22163274 481.57815155 472.31964649 483.68212891 474.41992188 C484.30352249 475.02895859 484.92491608 475.6379953 485.56513977 476.26548767 C489.98202695 480.70286673 493.85089035 485.16490983 494.87109375 491.53515625 C494.64112903 503.17137097 494.64112903 503.17137097 489.9453125 507.8671875 C485.6709786 511.63115317 482.32799462 512.63717852 476.75 512.875 C475.76773437 512.93558594 474.78546875 512.99617187 473.7734375 513.05859375 C465.25190454 511.50121014 458.74275779 504.23881721 452.86049175 498.30051517 C451.64374618 497.09031009 451.64374618 497.09031009 450.40241989 495.85565642 C447.69006787 493.15424005 444.98850865 490.44228663 442.28678894 487.73023987 C440.32405592 485.76930143 438.35907287 483.81062311 436.39419824 481.8518309 C432.12541189 477.59386182 427.86221266 473.33036264 423.60266304 469.06315422 C417.26860438 462.71773774 410.92598234 456.38093264 404.58166202 450.04577813 C393.25089966 438.73080692 381.92872586 427.40727255 370.61019153 416.0800709 C360.70637958 406.16871218 350.79978388 396.26014653 340.89040565 386.35435295 C340.23309009 385.69726654 339.57577453 385.04018013 338.89854031 384.36318201 C336.23030002 381.69587573 333.56204913 379.02858005 330.89378081 376.36130181 C305.86588406 351.34258122 280.84674279 326.31512132 255.83150948 301.28373979 C233.60310837 279.04109862 211.36696011 256.80623037 189.12426758 234.57788086 C164.13566521 209.60533834 139.15191161 184.62796133 114.17597467 159.64275116 C111.5141645 156.97997883 108.85234251 154.31721832 106.19051552 151.65446281 C105.53510724 150.9988173 104.87969895 150.34317178 104.20442981 149.66765822 C94.30298313 139.76279778 84.39783743 129.86164668 74.49089622 119.96228218 C63.22891186 108.70886791 51.97228751 97.45012299 40.7227359 86.18427963 C34.42504869 79.87777334 28.12325876 73.57543337 21.81550901 67.27899126 C17.6045928 63.07479268 13.39914091 58.86518086 9.19812331 54.65109125 C6.80314464 52.24896462 4.40508814 49.85014649 2.00196555 47.45615143 C-0.58554967 44.87771443 -3.16371662 42.29027888 -5.73969746 39.70032597 C-6.48868086 38.95836606 -7.23766426 38.21640616 -8.00934413 37.45196262 C-12.79913865 32.60984655 -17.04365945 28.06660388 -18.15625 21.12109375 C-18.05016839 10.10186668 -18.05016839 10.10186668 -13.625 5.4375 C-9.20111699 1.44521534 -5.90434585 0.25173568 0 0 Z M233.5625 110.3125 C228.64443452 114.55727924 223.64081509 118.59912197 218.46362305 122.52490234 C214.02499546 125.90526593 209.69271794 129.40440128 205.375 132.9375 C199.53776624 137.7094438 193.63088973 142.36478237 187.63671875 146.9375 C181.83130996 151.37091691 176.11057782 155.91439065 170.375 160.4375 C171.66012906 163.25807296 173.00050911 165.31264122 175.19032288 167.50006104 C176.05052284 168.36655273 176.05052284 168.36655273 176.92810059 169.25054932 C177.55518921 169.87201843 178.18227783 170.49348755 178.82836914 171.13378906 C179.4902977 171.79761597 180.15222626 172.46144287 180.83421326 173.14538574 C183.0213394 175.336214 185.21557772 177.5197639 187.41015625 179.703125 C188.9298434 181.22162022 190.44916128 182.7404851 191.96812439 184.25970459 C195.15022549 187.44024195 198.33565825 190.61739129 201.52368164 193.79199219 C205.62036446 197.87164925 209.71039729 201.95789458 213.79819584 206.04645157 C216.93331004 209.1812946 220.07101784 212.31353041 223.20962334 215.44487762 C224.7193883 216.95144996 226.22853914 218.45863797 227.73707771 219.96643829 C229.83921863 222.06642398 231.94461109 224.16309104 234.05102539 226.25878906 C234.99469467 227.20313812 234.99469467 227.20313812 235.95742798 228.16656494 C238.29639466 231.06910166 238.29639466 231.06910166 241.375 232.4375 C241.375 190.5275 241.375 148.6175 241.375 105.4375 C238.03197558 105.4375 235.97316054 108.19426413 233.5625 110.3125 Z "
        fill="#000000" transform="translate(17.625,-0.4375)" />
    <path
        d="M0 0 C1.42146426 -0.00389749 2.84292737 -0.00823429 4.26438904 -0.01298523 C7.22699785 -0.02039953 10.18948737 -0.02019024 13.15209961 -0.01489258 C16.92665315 -0.00908871 20.70071745 -0.02607402 24.47519016 -0.04923725 C27.40507301 -0.06404525 30.3348397 -0.06483702 33.26475334 -0.06172752 C34.65565908 -0.06223668 36.04657202 -0.06739714 37.43744087 -0.07753944 C55.07946903 -0.19047968 55.07946903 -0.19047968 60.98902893 4.91435242 C64.95191379 9.04605757 67.06762168 13.44315321 67.1484375 19.2734375 C66.75714415 24.48064902 65.14038911 28.05744724 62.12109375 32.30078125 C56.70683789 36.58706714 52.83033173 37.42827968 46.06738281 37.41430664 C44.82939941 37.41418579 43.59141602 37.41406494 42.31591797 37.41394043 C41.01928223 37.40882446 39.72264648 37.4037085 38.38671875 37.3984375 C37.19159668 37.39743042 35.99647461 37.39642334 34.76513672 37.39538574 C30.30044597 37.39015346 25.8357689 37.3761922 21.37109375 37.36328125 C11.38859375 37.34265625 1.40609375 37.32203125 -8.87890625 37.30078125 C-8.87890625 70.30078125 -8.87890625 103.30078125 -8.87890625 137.30078125 C11.35922658 137.14290552 11.35922658 137.14290552 31.59692383 136.94042969 C34.15315072 136.92873613 36.70938513 136.91854589 39.265625 136.91015625 C41.22163635 136.87946045 41.22163635 136.87946045 43.21716309 136.84814453 C54.3801899 136.84392131 63.39045453 139.01325154 71.93359375 146.36328125 C73.12856828 147.34546342 74.3238908 148.32722233 75.51953125 149.30859375 C76.41430176 150.05544434 76.41430176 150.05544434 77.32714844 150.81738281 C80.19034992 153.18494027 83.12701775 155.45642152 86.05859375 157.73828125 C91.5726831 162.06189007 97.04646433 166.43462032 102.51318359 170.81787109 C106.71994051 174.18785274 110.94337901 177.53550275 115.18359375 180.86328125 C115.75867676 181.31461426 116.33375977 181.76594727 116.92626953 182.23095703 C119.79742688 184.4825446 122.67125595 186.73067696 125.546875 188.9765625 C131.81182906 193.87616903 138.02356398 198.83221052 144.18359375 203.86328125 C149.98554295 208.60088147 155.86315538 213.2137068 161.8203125 217.75390625 C166.22008826 221.12577217 170.52880752 224.61264605 174.83422852 228.10375977 C175.42131592 228.57740967 176.00840332 229.05105957 176.61328125 229.5390625 C177.1222998 229.95196533 177.63131836 230.36486816 178.15576172 230.7902832 C181.08560359 233.04207596 184.10538317 235.16599023 187.12109375 237.30078125 C187.12695999 236.49977997 187.13282623 235.69877869 187.13887024 234.87350464 C187.19686347 227.31106712 187.26897775 219.74895658 187.35680866 212.18681145 C187.4014654 208.29936689 187.44073158 204.412026 187.4675293 200.52441406 C187.49360958 196.77001838 187.53404461 193.01602259 187.58428001 189.26187515 C187.60091696 187.83226637 187.61245098 186.40258847 187.61870766 184.97289658 C187.62838242 182.9647289 187.65816802 180.95668902 187.6887207 178.94873047 C187.70537529 177.23663895 187.70537529 177.23663895 187.72236633 175.48995972 C188.38170406 170.21631763 190.51617752 166.32802669 194.62109375 162.98828125 C195.20890625 162.49714844 195.79671875 162.00601563 196.40234375 161.5 C200.7983155 158.43281062 205.99637331 158.87572619 211.12109375 159.30078125 C216.64209977 161.10572553 219.75239928 164.7470086 223.12109375 169.30078125 C224.77306426 172.60472227 224.28657984 176.28912262 224.2980957 179.92211914 C224.3046669 180.81503662 224.3112381 181.7079541 224.31800842 182.62792969 C224.33777188 185.59309978 224.34941355 188.55821903 224.359375 191.5234375 C224.36345053 192.5363983 224.36752605 193.54935909 224.37172508 194.59301567 C224.39260326 199.95906242 224.40689488 205.3250835 224.41625977 210.69116211 C224.42730088 216.22367067 224.46166933 221.75577443 224.50143147 227.2881403 C224.52763767 231.54937973 224.53595539 235.81052355 224.53954124 240.07183647 C224.54440035 242.11029213 224.55599498 244.14874371 224.57457924 246.18712044 C224.59904549 249.04962818 224.59799144 251.91110036 224.59106445 254.77368164 C224.61027954 256.02486031 224.61027954 256.02486031 224.62988281 257.30131531 C224.56025663 265.24273931 221.80304547 272.61882953 216.12109375 278.30078125 C209.17646306 283.61776412 201.96614551 286.07666298 193.12109375 285.30078125 C184.66012754 283.2671806 178.4949185 278.71829505 171.74609375 273.36328125 C170.8480603 272.65473999 170.8480603 272.65473999 169.93188477 271.93188477 C164.58326282 267.69810521 159.30013382 263.38499 154.01635742 259.07080078 C149.91139025 255.72829095 145.76759172 252.44866617 141.55859375 249.23828125 C136.23683256 245.17797457 130.99831021 241.02525354 125.77929688 236.83398438 C121.55733054 233.44512959 117.31799533 230.07996073 113.05859375 226.73828125 C112.48359131 226.28702881 111.90858887 225.83577637 111.31616211 225.37084961 C108.44495705 223.11913759 105.57102164 220.8709559 102.6953125 218.625 C96.43035661 213.72539204 90.21869036 208.76927185 84.05859375 203.73828125 C78.23752624 198.98621896 72.3463774 194.34912253 66.37109375 189.79296875 C62.108511 186.53814476 57.90441815 183.20870863 53.70068359 179.87841797 C48.71042303 175.93751804 46.15760028 174.05080995 39.72875977 174.07714844 C39.0843544 174.07674057 38.43994904 174.0763327 37.77601624 174.07591248 C36.37646015 174.075715 34.97689853 174.07975249 33.57736397 174.08751678 C31.35151325 174.09776438 29.12622087 174.09234177 26.90037537 174.08209229 C20.57158827 174.05417461 14.24310766 174.04140076 7.91430664 174.07080078 C4.03956861 174.08767079 0.16582198 174.07499027 -3.70881844 174.04434967 C-5.17538106 174.03830003 -6.64203363 174.04296763 -8.1085186 174.05922699 C-18.78891311 174.17257007 -27.62354238 172.58549213 -36.01976013 165.49212646 C-43.88499957 157.27913836 -45.47686979 147.93981127 -45.39648438 136.94140625 C-45.40349365 135.74656616 -45.41050293 134.55172607 -45.41772461 133.32067871 C-45.43222009 130.07254482 -45.42895439 126.82507289 -45.41620827 123.57695007 C-45.40600115 120.15968557 -45.41549515 116.74246176 -45.42175293 113.32519531 C-45.42900712 107.5891133 -45.41950063 101.85323804 -45.40039062 96.1171875 C-45.37862594 89.50846407 -45.38567892 82.90023446 -45.40769625 76.29152298 C-45.42591426 70.59265577 -45.42837751 64.89393624 -45.41794157 59.19504929 C-45.41174157 55.80219187 -45.4107735 52.4095657 -45.42408752 49.01672363 C-45.43429377 45.23086601 -45.4186929 41.44594451 -45.39648438 37.66015625 C-45.4045813 36.55232788 -45.41267822 35.44449951 -45.42102051 34.30310059 C-45.30678211 23.74298474 -42.3282279 15.86492401 -35.01171875 8.2109375 C-25.36094808 -0.43233513 -12.24424563 -0.0141216 0 0 Z "
        fill="#000000" transform="translate(70.87890625,168.69921875)" />
</svg>