<?xml version="1.0" encoding="UTF-8"?>
<svg version="1.1" xmlns="http://www.w3.org/2000/svg" width="512" height="533">
    <path
        d="M0 0 C13.69714334 10.65333371 18.57780218 25.7485575 21 42.5625 C22.73413699 57.95782067 22.96195631 73.26041471 22.95776367 88.73632812 C22.96076228 90.96572932 22.9641664 93.19513001 22.96794128 95.42453003 C22.97671516 101.43740174 22.97911662 107.45025918 22.97975707 113.46313667 C22.98047146 117.23305023 22.98261312 121.00296025 22.98525429 124.77287292 C22.99401171 137.28440003 22.99867672 149.79591915 22.99792381 162.30744869 C22.99786388 163.31493444 22.99786388 163.31493444 22.99780273 164.34277344 C22.99776185 165.01527136 22.99772097 165.68776928 22.99767885 166.38064593 C22.9972731 177.25952716 23.00682984 188.13837367 23.0209411 199.01724488 C23.03538831 210.24567223 23.04202459 221.47408327 23.04134732 232.7025218 C23.04109421 238.98301726 23.04384085 245.26347337 23.05452538 251.54396057 C23.06431718 257.46042401 23.06421092 263.37681138 23.05700874 269.29327774 C23.05597644 271.44403827 23.05824335 273.59480382 23.0643692 275.74555588 C23.23316211 339.20316123 23.23316211 339.20316123 5.03515625 358.4375 C-4.20146605 365.70991967 -14.54713379 369.02012086 -26.1875 368.1875 C-42.44703368 366.08875168 -55.41731674 355.8593514 -67.1875 345.1875 C-68.47752408 344.08141471 -69.76897767 342.9769922 -71.0625 341.875 C-81.43843587 332.70207119 -91.38205583 323.08966665 -101.1875 313.3125 C-102.07139404 312.43319824 -102.95528809 311.55389648 -103.8659668 310.64794922 C-108.29488569 306.20851832 -112.58753653 301.72053338 -116.63549805 296.92944336 C-129.54112788 282.44436095 -144.96547634 275.69885787 -163.93579102 274.40405273 C-168.68157538 274.13561186 -173.42746588 274.05021786 -178.1796875 273.9765625 C-179.06189468 273.96221664 -179.94410187 273.94787079 -180.8530426 273.93309021 C-184.50370494 273.87595591 -188.15422716 273.82123184 -191.80517578 273.78613281 C-212.33984185 273.57310998 -232.59666551 272.17363096 -248.1875 257.1875 C-264.07272097 240.38099205 -266.33385845 218.34193828 -266.35546875 196.20703125 C-266.35879715 194.99536789 -266.36212555 193.78370453 -266.36555481 192.5353241 C-266.37059005 189.98473486 -266.3729642 187.43413912 -266.37280273 184.88354492 C-266.37498395 181.02836984 -266.39316225 177.1734838 -266.41210938 173.31835938 C-266.47083927 148.31772234 -265.98175467 123.78495756 -248 104.4375 C-228.66705599 86.24370252 -202.53328846 88.04955282 -177.75024414 87.71069336 C-148.44903334 87.29264106 -131.04144924 79.72308879 -110.5859375 58.80859375 C-109.53310621 57.74503363 -108.47942601 56.68231328 -107.42495728 55.62037659 C-104.68397516 52.85691488 -101.9513424 50.08537179 -99.22149658 47.31091309 C-94.85005547 42.86854722 -90.4706916 38.4341201 -86.08186722 34.0089283 C-84.57360978 32.48431026 -83.07212141 30.95326656 -81.57113647 29.42149353 C-75.43498329 23.1992535 -69.05147213 17.59206069 -62.1875 12.1875 C-61.6091188 11.71830643 -61.03073761 11.24911285 -60.43482971 10.76570129 C-42.5429623 -3.74801156 -21.38801385 -12.1618118 0 0 Z M-52.33984375 47.74609375 C-53.02159164 48.38617371 -53.70333954 49.02625366 -54.40574646 49.68572998 C-60.11533944 55.08975668 -65.6681069 60.64077412 -71.19140625 66.234375 C-72.05244965 67.10555466 -72.91349304 67.97673431 -73.80062866 68.87431335 C-77.34590642 72.46498444 -80.88912456 76.05747999 -84.41772461 79.66455078 C-109.26082182 105.03010821 -132.04615112 119.99710441 -168.296875 120.43359375 C-170.20573366 120.46653756 -172.11458771 120.49974912 -174.0234375 120.53320312 C-176.97620484 120.58039459 -179.92895424 120.62488591 -182.88183594 120.66430664 C-204.69681684 119.80042862 -204.69681684 119.80042862 -223.98046875 127.765625 C-233.26312359 138.89441007 -233.50375303 152.27662068 -233.453125 166.28515625 C-233.45503845 167.48128036 -233.4569519 168.67740448 -233.45892334 169.90977478 C-233.46027398 172.4181235 -233.4566567 174.92647948 -233.44824219 177.43481445 C-233.43751742 181.24381395 -233.44818119 185.05234292 -233.4609375 188.86132812 C-233.45961589 191.31510519 -233.45705347 193.76888197 -233.453125 196.22265625 C-233.45717346 197.34487076 -233.46122192 198.46708527 -233.46539307 199.62330627 C-233.39403424 211.82857209 -231.82685353 222.45524411 -225.5 233 C-218.37731716 239.73767295 -209.01538451 240.30810222 -199.66015625 240.43359375 C-197.97443975 240.4648832 -196.28873031 240.49655459 -194.60302734 240.52856445 C-193.7281366 240.54392242 -192.85324585 240.5592804 -191.95184326 240.57510376 C-144.71231895 241.4474988 -116.5918713 249.90709503 -82.77124023 283.54394531 C-81.13067694 285.24646915 -79.59100942 287.0091538 -78.0625 288.8125 C-71.09566945 296.88018413 -63.39831964 304.51036374 -55.2578125 311.390625 C-53.1204158 313.24572402 -51.07318383 315.18334383 -49.02001953 317.13061523 C-36.41601546 329.44741981 -36.41601546 329.44741981 -20.625 335.3125 C-17.52234362 333.88050475 -16.46083211 332.08737577 -15.09765625 329.0078125 C-9.32072688 311.10676955 -10.0371849 291.58896835 -10.04223633 273.01757812 C-10.03923885 270.80493107 -10.03583498 268.59228453 -10.03205872 266.37963867 C-10.02327307 260.4039717 -10.02088286 254.42831907 -10.02024293 248.45264626 C-10.01952918 244.70788552 -10.0173887 240.96312837 -10.01474571 237.21836853 C-10.00598469 224.79556932 -10.00132377 212.37277701 -10.00207619 199.94997507 C-10.00211614 199.28263564 -10.0021561 198.61529621 -10.00219727 197.92773438 C-10.00225859 196.9254759 -10.00225859 196.9254759 -10.00232115 195.90296978 C-10.00272691 185.09374196 -9.99317086 174.28454909 -9.9790589 163.47533137 C-9.96462011 152.32607808 -9.95797506 141.17683914 -9.95865268 130.02757597 C-9.95890601 123.78847402 -9.95614649 117.54941165 -9.94547462 111.31031799 C-9.9356955 105.43328435 -9.93578072 99.55632733 -9.94299126 93.67929077 C-9.94402512 91.54059231 -9.94174694 89.40188882 -9.9356308 87.26319885 C-8.82961743 56.57145901 -8.82961743 56.57145901 -18.1875 28.1875 C-19.20029968 26.97696731 -19.20029968 26.97696731 -21.25 26.875 C-33.13558597 28.13942404 -43.97078338 39.87702177 -52.33984375 47.74609375 Z "
        fill="#000000" transform="translate(292.1875,80.8125)" />
    <path
        d="M0 0 C6.81601322 2.46786686 10.45998614 7.68140489 14.75244141 13.35351562 C16.04204785 15.05549328 17.35485856 16.73798757 18.66796875 18.421875 C46.14615044 54.20344765 58.35388684 99.4040717 53.05273438 144.19482422 C48.92664918 174.3884509 37.10908082 204.14092688 18 228 C17.30511475 228.87785156 17.30511475 228.87785156 16.59619141 229.7734375 C15.16297613 231.57062101 13.7122358 233.35136906 12.25 235.125 C11.81421631 235.65818848 11.37843262 236.19137695 10.92944336 236.74072266 C6.47686628 241.98192629 1.76911011 245.6304794 -5.1875 246.3125 C-9.87076724 245.92862564 -13.17446454 244.71945673 -17 242 C-21.16914657 236.76184149 -22.54727424 232.67674578 -22 226 C-19.75068733 219.96775238 -16.222336 215.76511591 -12.05932617 210.89990234 C10.33946375 184.45411841 22.59829385 148.7041683 20 114 C17.20875718 83.26631557 6.16565688 54.90609219 -14.58984375 31.796875 C-19.85180329 25.69061401 -22.54416236 21.16243543 -22 13 C-20.17698367 7.12583628 -17.83361931 4.49666077 -13 1 C-9.03141288 -0.98429356 -4.32490759 -0.39700125 0 0 Z "
        fill="#000000" transform="translate(432,139)" />
    <path
        d="M0 0 C8.93774255 7.98691887 14.04496948 18.89035691 18.9375 29.625 C19.66646484 31.21441406 19.66646484 31.21441406 20.41015625 32.8359375 C30.60525307 57.09216174 31.82398395 88.53709824 23.9375 113.625 C23.72319336 114.31400391 23.50888672 115.00300781 23.28808594 115.71289062 C18.56150831 130.39486537 11.17548248 148.79967835 -2.0625 157.625 C-7.2689736 159.3604912 -12.21184089 159.28844383 -17.375 157.4375 C-21.84088135 154.42562653 -24.58097568 150.81033514 -26.0625 145.625 C-26.88027284 138.40133996 -24.01521764 133.64132555 -20.2265625 127.7890625 C-16.37467624 121.81199762 -13.18627248 116.08616058 -10.6875 109.4375 C-10.44918457 108.80908203 -10.21086914 108.18066406 -9.96533203 107.53320312 C-2.1364824 85.66895015 -4.26733181 60.55719755 -13.875 39.6875 C-16.64606043 33.93538115 -19.78665712 28.66110758 -23.71484375 23.60546875 C-26.45277685 19.5818975 -26.45961467 15.39037606 -26.0625 10.625 C-24.16661985 4.82902354 -21.57044517 1.49372144 -16.0625 -1.375 C-10.56728296 -3.12449767 -5.19852354 -2.33403098 0 0 Z "
        fill="#000000" transform="translate(372.0625,183.375)" />
</svg>