<?xml version="1.0" standalone="yes"?>
<svg xmlns="http://www.w3.org/2000/svg" width="348" height="300">
<path style="fill:#f7f7f7; stroke:none;" d="M0 0L0 300L348 300L348 0L0 0z"/>
<path style="fill:#95837f; stroke:none;" d="M173 63L174 64L173 63z"/>
<path style="fill:#9f2e1f; stroke:none;" d="M174 63L175 64L174 63z"/>
<path style="fill:#95837f; stroke:none;" d="M175 63L176 64L175 63z"/>
<path style="fill:#9f2e1f; stroke:none;" d="M171 64L172 65L171 64z"/>
<path style="fill:#e4482c; stroke:none;" d="M172 64L173 79L174 79L177 64L172 64z"/>
<path style="fill:#9f2e1f; stroke:none;" d="M177 64L178 65L177 64z"/>
<path style="fill:#4f211a; stroke:none;" d="M170 65L161 80L158 79L143 101L147 97L146 109L143 108C141.7 115.479 146.01 119.171 150 125L145 125C145.698 120.084 142.182 115.454 138 113L142 129L147 126L152 135C150.591 140.786 154.125 142.761 159 145C158.963 138.42 157.427 128.844 149 129L150 125L160 136L161 136L163 112L164 112L164 115C169.38 115 166.596 121.764 166 125L168 132L167 132L166 129L165 129C159.913 141.743 164.67 153.038 173 164L176 152L179 153L180 143L185 144L185 137C193.68 140.608 202.046 139.514 210 134L211 137L214 135L210 148L213 149L216 144L217 144L219 156L218 156L217 153L211 159L210 159L209 157L208 157L199 164C196.715 149.252 181.391 166.44 173 165C174.468 171.888 190.786 179.337 197 182L197 171L198 171C199.973 177.325 210.03 182.737 216 185L214 177L222 189L226 180L227 180L227 184L228 184C228.775 174.264 232.633 152.778 223 146L223 149L222 149L214 133L210 134L209 121L212 122L210 115L215 117C212.377 102.286 200.987 89.8585 191.576 79C187.339 74.1124 182.887 67.8033 177 65L174 81L173 81L172 65L170 65z"/>
<path style="fill:#9f2e1f; stroke:none;" d="M168 67L169 68L168 67z"/>
<path style="fill:#95837f; stroke:none;" d="M167 68L168 69L167 68M166 69L167 70L166 69z"/>
<path style="fill:#9f2e1f; stroke:none;" d="M176 69L176 72L177 72L176 69M169 70L165 77L169 70M183 70L184 71L183 70M184 71L185 72L184 71M183 72L185 78L186 78L183 72z"/>
<path style="fill:#95837f; stroke:none;" d="M185 72L186 73L185 72z"/>
<path style="fill:#e4482c; stroke:none;" d="M183 73L184 74L183 73z"/>
<path style="fill:#95837f; stroke:none;" d="M186 73L187 74L186 73z"/>
<path style="fill:#9f2e1f; stroke:none;" d="M162 74L163 75L162 74z"/>
<path style="fill:#e4482c; stroke:none;" d="M184 74L185 75L184 74z"/>
<path style="fill:#95837f; stroke:none;" d="M161 75L160 77L161 75z"/>
<path style="fill:#9f2e1f; stroke:none;" d="M172 75L172 79L173 79L172 75M175 75L176 76L175 75M161 76L159 80L161 76M174.333 77.6667L174.667 78.3333L174.333 77.6667M170 79L170 84L170 79M173.333 79.6667L173.667 80.3333L173.333 79.6667M181 80L180 84L181 84L181 80M192 80L193 81L192 80M156 81L157 82L156 81z"/>
<path style="fill:#95837f; stroke:none;" d="M193 81L194 82L193 81M155 82L156 83L155 82z"/>
<path style="fill:#9f2e1f; stroke:none;" d="M161 82L161 85L162 85L161 82z"/>
<path style="fill:#95837f; stroke:none;" d="M194 82L195 83L194 82M154 83L155 84L154 83M195 83L196 84L195 83z"/>
<path style="fill:#9f2e1f; stroke:none;" d="M168 85L167 91L168 91L168 85M150 88L151 89L150 88M173 88L174 89L173 88M199 88L200 89L199 88z"/>
<path style="fill:#95837f; stroke:none;" d="M149 89L150 90L149 89z"/>
<path style="fill:#9f2e1f; stroke:none;" d="M200 89L201 90L200 89z"/>
<path style="fill:#95837f; stroke:none;" d="M148 90L149 91L148 90z"/>
<path style="fill:#9f2e1f; stroke:none;" d="M163 90L164 93L165 93L165 90L163 90M171 90L170 92L171 90z"/>
<path style="fill:#95837f; stroke:none;" d="M201 90L202 91L201 90M202 91L203 92L202 91M203 92L204 93L203 92z"/>
<path style="fill:#9f2e1f; stroke:none;" d="M146 93L147 94L146 93M204 94L205 95L204 94M167 95L166 113L169 115L172 106L169 108L169 95L167 95z"/>
<path style="fill:#95837f; stroke:none;" d="M205 95L206 96L205 95M144 96L145 97L144 96z"/>
<path style="fill:#9f2e1f; stroke:none;" d="M176 96L177 100L174 100L175 104L176 104L176 101L177 101L177 103L178 103L176 96M204 96L205 97L204 96M145 97L145 100L147 97L145 97z"/>
<path style="fill:#95837f; stroke:none;" d="M206 97L207 98L206 97M143 98L144 99L143 98z"/>
<path style="fill:#9f2e1f; stroke:none;" d="M173 98L174 99L173 98M205 98L206 99L205 98z"/>
<path style="fill:#95837f; stroke:none;" d="M207 99L208 100L207 99M142 100L143 101L142 100z"/>
<path style="fill:#e4482c; stroke:none;" d="M145 100L144 108L145 100z"/>
<path style="fill:#9f2e1f; stroke:none;" d="M159 100L160 101L159 100M206 100L208 107L209 107L206 100M142 101L136 118L133 120L140 120L138 113L146 119C141.721 112.106 144.349 108.46 145 101L142 101M208 101L209 102L208 101z"/>
<path style="fill:#95837f; stroke:none;" d="M141 102L142 103L141 102M209 103L210 104L209 103M140 104L141 105L140 104z"/>
<path style="fill:#9f2e1f; stroke:none;" d="M177 104L181 108L180 111L181 111C181.326 107.193 180.39 105.722 177 104z"/>
<path style="fill:#95837f; stroke:none;" d="M210 105L211 106L210 105M139 106L140 107L139 106z"/>
<path style="fill:#9f2e1f; stroke:none;" d="M162 106L155 118C159.684 114.795 163.549 111.927 164 106L162 106M192 106L198 114C200.058 108.916 196.702 106.756 192 106z"/>
<path style="fill:#4f211a; stroke:none;" d="M139 107L138 110L139 107M171 107L172 108L171 107z"/>
<path style="fill:#9f2e1f; stroke:none;" d="M211 107L212 108L211 107z"/>
<path style="fill:#95837f; stroke:none;" d="M138 108L139 109L138 108z"/>
<path style="fill:#9f2e1f; stroke:none;" d="M145 108L146 109L145 108M185 109L186 113L190 109L185 109z"/>
<path style="fill:#4f211a; stroke:none;" d="M170 109L169 112L170 109M187 109L186 111L187 109z"/>
<path style="fill:#9f2e1f; stroke:none;" d="M212 109L213 110L212 109M203 110L204 111L203 110z"/>
<path style="fill:#4f211a; stroke:none;" d="M137 111L138 112L137 111z"/>
<path style="fill:#9f2e1f; stroke:none;" d="M194 111L193 112L197 115L197 114L194 111M213 111L214 112L213 111M163 112L161 136L160 136L150 125L149 129C156.708 130.773 158.868 137.941 159 145L152 140L151 140L151 147L145 137L141 138L144 152L137 140L136 140L139 149L138 149L136 145L132 148L135 144L138 128L137 128L136 132L132 130C133.484 136.251 133.003 142.926 126 145L125 156L126 156L127 153L128 153L127 159L123 158L121 174L124 175L122 177L124 189L127 190L128 187C131.639 189.463 133.44 187.725 135 184L136 184L139 194L146 182L151 184L152 184L155 178L157 160L164 163L156 157L156 165L152 163L149 152L150 151C155.732 153.329 163.085 156.63 165 163L168 162L167 166L170 165L168 163L172 166L179 166L179 165L177 164L191 151L184 144L181 154L180 154L180 147L179 147L179 153L176 152L176 153L176 161L174 160L173 164L160 141L162 142L162 141C160.127 129.269 172.432 123.264 163 112z"/>
<path style="fill:#e4482c; stroke:none;" d="M194 112L195 113L194 112z"/>
<path style="fill:#9f2e1f; stroke:none;" d="M204 112L206 114L204 112z"/>
<path style="fill:#e4482c; stroke:none;" d="M195 113L196 114L195 113z"/>
<path style="fill:#9f2e1f; stroke:none;" d="M214 113L215 114L214 113z"/>
<path style="fill:#e4482c; stroke:none;" d="M154 115L154 119L155 119L156 115L154 115z"/>
<path style="fill:#9f2e1f; stroke:none;" d="M210 115L212 122L209 121L210 134L214 133L223 149L225 141L224 141L222 147L221 147C222.784 137.603 223.014 132.427 220 123L219 123L220 129L219 129L217 124L216 124L216 130L212 123L215 119L218 120L216 115L214 117L210 115z"/>
<path style="fill:#4f211a; stroke:none;" d="M135.333 116.667L135.667 117.333L135.333 116.667z"/>
<path style="fill:#e4482c; stroke:none;" d="M142 116L144 118L142 116z"/>
<path style="fill:#9f2e1f; stroke:none;" d="M197 116L195 124L200 120L205 123L204 118L205 122L197 116M153 117L155 120L153 117z"/>
<path style="fill:#e4482c; stroke:none;" d="M144 118L147 122L144 118z"/>
<path style="fill:#4f211a; stroke:none;" d="M196 118L197 119L196 118z"/>
<path style="fill:#e4482c; stroke:none;" d="M134 119C132.423 121.859 131.62 132.706 137 128L138 128C137.179 136.24 133.035 141.268 138 149L139 149L136 140L137 140L144 152L141 132L142 132L143 135L144 135L140 120L134 119M202 119L205 122L202 119z"/>
<path style="fill:#4f211a; stroke:none;" d="M215 119L212 123L216 130L216 124L219 125L215 119z"/>
<path style="fill:#9f2e1f; stroke:none;" d="M172 120L171 122L172 120M187 120L185 129C188.188 126.278 188.966 123.818 187 120z"/>
<path style="fill:#4f211a; stroke:none;" d="M195 120L196 121L195 120M197 120L198 121L197 120z"/>
<path style="fill:#95837f; stroke:none;" d="M218 120L219 121L218 120z"/>
<path style="fill:#9f2e1f; stroke:none;" d="M132 121L133 122L132 121z"/>
<path style="fill:#95837f; stroke:none;" d="M135 121L136 122L135 121M138 121L139 122L138 121z"/>
<path style="fill:#9f2e1f; stroke:none;" d="M140.333 121.667L140.667 122.333L140.333 121.667M147 121L145 125L150 125L147 121z"/>
<path style="fill:#e4482c; stroke:none;" d="M172 121C169.765 125.187 168.482 131.071 173 134L172 121z"/>
<path style="fill:#95837f; stroke:none;" d="M219 122L220 123L219 122M131 123L132 124L131 123M134 123L135 124L134 123M136 123L137 124L136 123z"/>
<path style="fill:#9f2e1f; stroke:none;" d="M140 124L141 125L140 124z"/>
<path style="fill:#4f211a; stroke:none;" d="M187 124L188 125L187 124z"/>
<path style="fill:#95837f; stroke:none;" d="M130 125L131 126L130 125M134 125L134 128L135 128L134 125z"/>
<path style="fill:#e4482c; stroke:none;" d="M167 125L167 131L168 131L167 125M218 125L219 129L220 129L220 125L218 125z"/>
<path style="fill:#9f2e1f; stroke:none;" d="M130 126L129 130L132 126L130 126z"/>
<path style="fill:#95837f; stroke:none;" d="M136 126L137 127L136 126z"/>
<path style="fill:#9f2e1f; stroke:none;" d="M141.333 126.667L141.667 127.333L141.333 126.667M142 130L147 127L142 130z"/>
<path style="fill:#95837f; stroke:none;" d="M129 127L130 128L129 127z"/>
<path style="fill:#e4482c; stroke:none;" d="M143 130L147 128L143 130z"/>
<path style="fill:#9f2e1f; stroke:none;" d="M191 127L191 129L193 127L191 127z"/>
<path style="fill:#95837f; stroke:none;" d="M221 127L222 128L221 127z"/>
<path style="fill:#4f211a; stroke:none;" d="M131 128L136 132L131 128z"/>
<path style="fill:#9f2e1f; stroke:none;" d="M133 128L134 129L133 128z"/>
<path style="fill:#95837f; stroke:none;" d="M139 128L139 131L140 131L139 128M142 130L150 146L151 146L147 128L142 130z"/>
<path style="fill:#9f2e1f; stroke:none;" d="M147 128L148 129L147 128M160 128L158 132L159 132L160 128z"/>
<path style="fill:#e4482c; stroke:none;" d="M212 128L215 131L212 128z"/>
<path style="fill:#4f211a; stroke:none;" d="M217 128L218 129L217 128z"/>
<path style="fill:#9f2e1f; stroke:none;" d="M134 129L135 130L134 129z"/>
<path style="fill:#e4482c; stroke:none;" d="M147.333 129.667L147.667 130.333L147.333 129.667z"/>
<path style="fill:#9f2e1f; stroke:none;" d="M150 129L150 130L158 137L150 129M169 129L169 132L170 132L169 129M197.333 129.667L197.667 130.333L197.333 129.667z"/>
<path style="fill:#4f211a; stroke:none;" d="M210 129L211 130L210 129z"/>
<path style="fill:#e4482c; stroke:none;" d="M126 145C138.32 142.995 130.082 121.184 127.08 138.995C126.742 141.002 126.377 143.001 126 145M162 130L162 133L164 130L162 130z"/>
<path style="fill:#9f2e1f; stroke:none;" d="M166 130L167 131L166 130M148 131L149 132L148 131M167 131L168 132L167 131M172 131L173 132L172 131z"/>
<path style="fill:#95837f; stroke:none;" d="M222 131L223 132L222 131z"/>
<path style="fill:#4f211a; stroke:none;" d="M141 132C140.421 135.372 140.555 137.032 144 138L141 132z"/>
<path style="fill:#e4482c; stroke:none;" d="M148.333 132.667L148.667 133.333L148.333 132.667z"/>
<path style="fill:#9f2e1f; stroke:none;" d="M140 133L141 134L140 133M142 133L143 134L142 133M149 133L150 138L151 138L152 135L149 133M166 133L169 135L169 134L166 133M171.667 134.333L172.333 134.667L171.667 134.333M209 134L201 135L201 136L209 142L212 149L212 148L214 135L211 137L209 134M143 135L144 136L143 135z"/>
<path style="fill:#e4482c; stroke:none;" d="M149.333 135.667L149.667 136.333L149.333 135.667z"/>
<path style="fill:#95837f; stroke:none;" d="M127 136L128 137L127 136z"/>
<path style="fill:#9f2e1f; stroke:none;" d="M140 136L141 137L140 136z"/>
<path style="fill:#e4482c; stroke:none;" d="M144 136L145 137L144 136z"/>
<path style="fill:#9f2e1f; stroke:none;" d="M152 136L153 140L154 140L152 136M199 136L198 138L199 136z"/>
<path style="fill:#e4482c; stroke:none;" d="M197 143L184 139C185.894 146.002 190.942 154.778 199 150L199 163L209 156L210 159L211 154L214 150L209 146L205 148L209 142C203.604 137.897 199.395 133.93 197 143z"/>
<path style="fill:#95837f; stroke:none;" d="M223 136L224 137L223 136z"/>
<path style="fill:#e4482c; stroke:none;" d="M145.333 137.667L145.667 138.333L145.333 137.667M147 137L148 138L147 137z"/>
<path style="fill:#9f2e1f; stroke:none;" d="M176 139L178 145L179 145L180 137L176 139M185.667 137.333L186.333 137.667L185.667 137.333z"/>
<path style="fill:#4f211a; stroke:none;" d="M144 138L145 139L144 138z"/>
<path style="fill:#e4482c; stroke:none;" d="M150 138L151 146L152 146L150 138z"/>
<path style="fill:#9f2e1f; stroke:none;" d="M157 138L158 139L157 138M173 138L173 140L175 138L173 138M184 138L185 139L184 138M188 138L189 139L188 138z"/>
<path style="fill:#4f211a; stroke:none;" d="M210 138L211 139L210 138M222 138L223 139L222 138z"/>
<path style="fill:#e4482c; stroke:none;" d="M146.333 139.667L146.667 140.333L146.333 139.667M174 139L173 151C178.867 149.219 180.013 141.417 174 139z"/>
<path style="fill:#9f2e1f; stroke:none;" d="M190 139L191 140L190 139M197.333 139.667L197.667 140.333L197.333 139.667M184.333 140.667L184.667 141.333L184.333 140.667M192 140L193 141L192 140z"/>
<path style="fill:#e4482c; stroke:none;" d="M223 140L221 147L222 147L223 140z"/>
<path style="fill:#95837f; stroke:none;" d="M224 140L225 141L224 140M126.333 141.667L126.667 142.333L126.333 141.667z"/>
<path style="fill:#e4482c; stroke:none;" d="M147.333 141.667L147.667 142.333L147.333 141.667M160 141L160 143L162 143L160 141z"/>
<path style="fill:#9f2e1f; stroke:none;" d="M194 141L194 142L197 143L194 141z"/>
<path style="fill:#4f211a; stroke:none;" d="M209 141L210 142L209 141z"/>
<path style="fill:#e4482c; stroke:none;" d="M148.333 143.667L148.667 144.333L148.333 143.667z"/>
<path style="fill:#9f2e1f; stroke:none;" d="M180 146L181 146L183 144C180.86 142.882 180.473 143.749 180 146M197 143L198 144L197 143z"/>
<path style="fill:#4f211a; stroke:none;" d="M133 144L132 148L135 144L133 144z"/>
<path style="fill:#e4482c; stroke:none;" d="M181 144L180 154L181 154L185 145L181 144z"/>
<path style="fill:#95837f; stroke:none;" d="M182 144L183 145L182 144z"/>
<path style="fill:#9f2e1f; stroke:none;" d="M216 144L211 155L217 153L218 156L219 156L216 144z"/>
<path style="fill:#e4482c; stroke:none;" d="M149 145L150 146L149 145z"/>
<path style="fill:#4f211a; stroke:none;" d="M155 145L156 146L155 145M207 145L207 147L209 145L207 145z"/>
<path style="fill:#95837f; stroke:none;" d="M225.333 145.667L225.667 146.333L225.333 145.667M125.333 146.667L125.667 147.333L125.333 146.667z"/>
<path style="fill:#e4482c; stroke:none;" d="M150 146L151 147L150 146z"/>
<path style="fill:#4f211a; stroke:none;" d="M158 146C157.318 150.091 160.066 159.917 164 155L166 160L167 160C165.242 156.017 163.617 152.93 159 153L161 151L158 146z"/>
<path style="fill:#9f2e1f; stroke:none;" d="M206 146L205 148L207 148L206 146z"/>
<path style="fill:#4f211a; stroke:none;" d="M155 147L156 148L155 147z"/>
<path style="fill:#9f2e1f; stroke:none;" d="M225 147L226 148L225 147M204 148L203 150L204 148z"/>
<path style="fill:#95837f; stroke:none;" d="M207 148L205 151L207 148z"/>
<path style="fill:#4f211a; stroke:none;" d="M125 149C124.69 152.972 123.299 156.573 127 159L128 153L127 153L126 156L125 156L125 149M131 149L142 163L131 154C128.519 163.346 141.466 162.998 141 173L154 170C150.651 163.747 137.344 152.091 131 149z"/>
<path style="fill:#9f2e1f; stroke:none;" d="M158 149L159 150L158 149M169 149L170 150L169 149z"/>
<path style="fill:#e4482c; stroke:none;" d="M139 150L140 151L139 150z"/>
<path style="fill:#9f2e1f; stroke:none;" d="M198 150L192 151L199 162L200 162L198 150M221 157L222 157L225 151C221.14 150.133 221.1 153.939 221 157z"/>
<path style="fill:#95837f; stroke:none;" d="M226.333 150.667L226.667 151.333L226.333 150.667M124.333 151.667L124.667 152.333L124.333 151.667z"/>
<path style="fill:#4f211a; stroke:none;" d="M150 151L149 152L156 165L156 157L166 162C161.888 156.284 156.698 152.961 150 151z"/>
<path style="fill:#9f2e1f; stroke:none;" d="M173.667 151.333L174.333 151.667L173.667 151.333z"/>
<path style="fill:#4f211a; stroke:none;" d="M181 161L193 154L193 152C187.22 151.183 183.288 156.095 181 161z"/>
<path style="fill:#e4482c; stroke:none;" d="M140 152L142 156L143 156L140 152z"/>
<path style="fill:#95837f; stroke:none;" d="M207 152L206 155L207 152z"/>
<path style="fill:#9f2e1f; stroke:none;" d="M226 152L227 153L226 152M124 153L125 154L124 153M160 153L161 154L160 153z"/>
<path style="fill:#e4482c; stroke:none;" d="M176 153L175 161L176 161L178 153L176 153z"/>
<path style="fill:#9f2e1f; stroke:none;" d="M162 154L163 155L162 154M191 154L190 156L191 154z"/>
<path style="fill:#e4482c; stroke:none;" d="M177 164L177 165L195 155C188.488 154.569 182.219 160.479 177 164M195 154L196 155L195 154z"/>
<path style="fill:#9f2e1f; stroke:none;" d="M171 155L173 158L171 155M175.333 155.667L175.667 156.333L175.333 155.667z"/>
<path style="fill:#4f211a; stroke:none;" d="M178.333 155.667L178.667 156.333L178.333 155.667z"/>
<path style="fill:#9f2e1f; stroke:none;" d="M225.333 155.667L225.667 156.333L225.333 155.667z"/>
<path style="fill:#95837f; stroke:none;" d="M227.333 155.667L227.667 156.333L227.333 155.667z"/>
<path style="fill:#9f2e1f; stroke:none;" d="M188 156L189 157L188 156M193 156L194 157L193 156M208 156L209 157L208 156z"/>
<path style="fill:#95837f; stroke:none;" d="M123 157L124 158L123 157z"/>
<path style="fill:#9f2e1f; stroke:none;" d="M209 157L210 158L209 157M227 157L228 158L227 157z"/>
<path style="fill:#4f211a; stroke:none;" d="M177 158L178 159L177 158z"/>
<path style="fill:#9f2e1f; stroke:none;" d="M185 158L186 159L185 158M190 158L191 159L190 158M217 158L218 159L217 158z"/>
<path style="fill:#e4482c; stroke:none;" d="M207 162L207 163L211 162L211 167L219 164L220 158L207 162M145 159L146 160L145 159z"/>
<path style="fill:#9f2e1f; stroke:none;" d="M188 159L189 160L188 159M205 159L206 160L205 159M215 159L216 160L215 159z"/>
<path style="fill:#4f211a; stroke:none;" d="M123.333 160.667L123.667 161.333L123.333 160.667z"/>
<path style="fill:#e4482c; stroke:none;" d="M146 160L147 161L146 160z"/>
<path style="fill:#4f211a; stroke:none;" d="M157 160L155 178L152 184L151 184L151 181L146 182L139 194L136 184L135 184C133.002 187.173 131.627 188.707 128 187L126 188L125 188C125.445 198.198 128.928 209.329 137 216L137 207C142.194 209.151 145.297 206.221 150 204C147.642 213.057 154.231 217.661 158 225L149 219C149.89 224.466 154.258 226.025 159 228L159 229L152 228C153.884 230.981 155.561 231.567 159 231L163 234L161 230L161 229L163 227L159 228L158 226L158 225L160 225L152 204L164 198L164 216L160 214L163 226L164 226L167 223L165 217L170 219L166 198C171.381 200.819 177.951 202.365 179 209L181 209C181.265 200.892 189.716 197.404 197 196L196 190L199 192L197 184L184 191L181 196L179 189L176 190L175 189L175 175L174 175L175 182L174 182L170 176L166 186L169 185L169 191L162 196L162 188L157 189L156 184L160 185L158 175L165 172L165 171L158 173L171 168L171 167L157 160z"/>
<path style="fill:#9f2e1f; stroke:none;" d="M182 160L183 161L182 160M186 160L187 161L186 160M202 160L202 161L205 161L202 160M213 160L214 161L213 160z"/>
<path style="fill:#95837f; stroke:none;" d="M228 160L229 161L228 160z"/>
<path style="fill:#4f211a; stroke:none;" d="M124 167L130 164L129 161L124 167z"/>
<path style="fill:#e4482c; stroke:none;" d="M147 161L148 162L147 161M168 161L169 162L168 161z"/>
<path style="fill:#9f2e1f; stroke:none;" d="M191 161L191 162L195 162L195 161L191 161z"/>
<path style="fill:#e4482c; stroke:none;" d="M193 161L194 162L193 161z"/>
<path style="fill:#9f2e1f; stroke:none;" d="M201 161L202 162L201 161M208 161L209 162L208 161M219 161L219 164L220 164L219 161M228 161L229 162L228 161z"/>
<path style="fill:#95837f; stroke:none;" d="M122.333 162.667L122.667 163.333L122.333 162.667z"/>
<path style="fill:#e4482c; stroke:none;" d="M148 162L154 168L148 162M152 162L153 163L152 162M164 162L168 165L168 164L164 162z"/>
<path style="fill:#4f211a; stroke:none;" d="M166.667 162.333L167.333 162.667L166.667 162.333z"/>
<path style="fill:#e4482c; stroke:none;" d="M169 162L168 166L173 167L169 162z"/>
<path style="fill:#9f2e1f; stroke:none;" d="M183 162L184 163L183 162M189 162L189 164L191 164L189 162z"/>
<path style="fill:#e4482c; stroke:none;" d="M190 162L190 163L193 163L190 162z"/>
<path style="fill:#9f2e1f; stroke:none;" d="M200 162L201 163L200 162M205.667 162.333L206.333 162.667L205.667 162.333z"/>
<path style="fill:#95837f; stroke:none;" d="M204 167L212 166L211 162L204 167z"/>
<path style="fill:#9f2e1f; stroke:none;" d="M148 163L149 164L148 163z"/>
<path style="fill:#4f211a; stroke:none;" d="M168 163L169 164L168 163z"/>
<path style="fill:#9f2e1f; stroke:none;" d="M181 163L182 164L181 163M199 163L200 164L199 163M203 163L204 164L203 163z"/>
<path style="fill:#e4482c; stroke:none;" d="M204.667 163.333L205.333 163.667L204.667 163.333z"/>
<path style="fill:#9f2e1f; stroke:none;" d="M149 164L150 165L149 164M165 164L166 165L165 164z"/>
<path style="fill:#e4482c; stroke:none;" d="M203 164L200 169L200 170C203.914 171.053 211.915 173.064 213 168C216.304 168.69 218.088 168.921 220 166C213.575 166.185 208.246 169.033 203 164z"/>
<path style="fill:#9f2e1f; stroke:none;" d="M215.667 164.333L216.333 164.667L215.667 164.333z"/>
<path style="fill:#4f211a; stroke:none;" d="M122.333 165.667L122.667 166.333L122.333 165.667z"/>
<path style="fill:#9f2e1f; stroke:none;" d="M150 165L151 166L150 165z"/>
<path style="fill:#e4482c; stroke:none;" d="M176 165L177 166L176 165z"/>
<path style="fill:#f7f7f7; stroke:none;" d="M210 165L211 166L210 165z"/>
<path style="fill:#9f2e1f; stroke:none;" d="M222 165L221 167L222 165z"/>
<path style="fill:#95837f; stroke:none;" d="M229 165L230 166L229 165z"/>
<path style="fill:#e4482c; stroke:none;" d="M130 166L131 167L130 166z"/>
<path style="fill:#9f2e1f; stroke:none;" d="M151 166L152 167L151 166M169 166L170 167L169 166M209 167L209 168L214 167L209 167M229 166L230 167L229 166z"/>
<path style="fill:#95837f; stroke:none;" d="M121.333 167.667L121.667 168.333L121.333 167.667z"/>
<path style="fill:#e4482c; stroke:none;" d="M136 167L137 168L136 167M138 167L139 168L138 167M140 167L141 168L140 167z"/>
<path style="fill:#9f2e1f; stroke:none;" d="M167 168L167 169L170 169L160 179L159 179L160 185L156 184L157 189L162 188L162 196L169 191L169 185L166 186L170 176L174 182L175 182L174 175L175 175L175 189L176 190L179 189L181 196L184 191L186 192L187 192L173 167L167 168M198 167C198.605 169.767 199.289 169.577 202 169L202 168L198 167z"/>
<path style="fill:#95837f; stroke:none;" d="M215 167L215 168L219 168L215 167z"/>
<path style="fill:#4f211a; stroke:none;" d="M126 168L127 169L126 168M129 168L130 172L139 170L139 169L129 168z"/>
<path style="fill:#e4482c; stroke:none;" d="M154 168L155 169L154 168M174 168L187 191L189 186L197 183L178 169L174 168z"/>
<path style="fill:#9f2e1f; stroke:none;" d="M175.667 168.333L176.333 168.667L175.667 168.333M214 168L215 169L214 168M219 168L220 169L219 168M164 169L165 170L164 169z"/>
<path style="fill:#e4482c; stroke:none;" d="M159 171L159 172L166 171L166 172C161.945 173.953 158.03 176.393 161 181L170 169L159 171z"/>
<path style="fill:#9f2e1f; stroke:none;" d="M147 171L147 172L152 171L147 171z"/>
<path style="fill:#e4482c; stroke:none;" d="M139 172C134.413 174.804 131.434 176.267 131 182L146 174L146 175C141.633 177.103 139.382 179.041 139 184L154 171L139 172z"/>
<path style="fill:#9f2e1f; stroke:none;" d="M161 170L162 171L161 170M177 170L178 171L177 170M200.667 170.333L201.333 170.667L200.667 170.333z"/>
<path style="fill:#4f211a; stroke:none;" d="M124 171L125 172L124 171z"/>
<path style="fill:#e4482c; stroke:none;" d="M138 171L139 172L138 171z"/>
<path style="fill:#9f2e1f; stroke:none;" d="M158 171L158 173L160 173L158 171M163 171L164 172L163 171M165 171L166 172L165 171z"/>
<path style="fill:#4f211a; stroke:none;" d="M172 171L174 173L172 171z"/>
<path style="fill:#9f2e1f; stroke:none;" d="M178 171L179 172L178 171M197 171L199 192L196 190L194 202L192 202L191 198L195 197L195 196C187.728 198.297 181.098 200.741 181 209L179 209C178.468 202.116 171.852 200.126 166 198L170 219L165 217L167 223L164 226L163 226L160 214L164 216L164 198L152 204L162 226L158 225L159 228L163 227L161 229L161 230L167 235L165 229L174 230L174 231L169 231L169 232L172 233L171 236L174 236L174 235L173 232L178 235L176 229C181.088 234.157 181.738 233.853 189 234L190 229L191 229L191 233L194 232L192 229L196 232L195 226L198 226L199 219L200 219L199 224L203 215L204 215L201 228L205 223L206 223L206 225L207 225L210 223L208 217L210 218L211 210L214 215L215 215L221 202L222 204L223 204L215 190L223 196L227 180L226 180L222 189L219 186L217 187L212 183L213 188L214 188L216 186L206 195L200 180L208 187L203 179L202 178L200 179L197 171z"/>
<path style="fill:#4f211a; stroke:none;" d="M121 172L122 173L121 172z"/>
<path style="fill:#e4482c; stroke:none;" d="M134 172L135 173L134 172M136 172L137 173L136 172z"/>
<path style="fill:#9f2e1f; stroke:none;" d="M144.667 172.333L145.333 172.667L144.667 172.333M164 172L165 173L164 172M180 172L181 173L180 172M214 172L213 174L214 172z"/>
<path style="fill:#4f211a; stroke:none;" d="M123 173L124 174L123 173M126.333 173.667L126.667 174.333L126.333 173.667z"/>
<path style="fill:#e4482c; stroke:none;" d="M132 173L133 174L132 173z"/>
<path style="fill:#9f2e1f; stroke:none;" d="M146 173L147 174L146 173M157.333 173.667L157.667 174.333L157.333 173.667M162 173L163 174L162 173z"/>
<path style="fill:#e4482c; stroke:none;" d="M214 173L217 175L214 173z"/>
<path style="fill:#9f2e1f; stroke:none;" d="M217 173L218 174L217 173z"/>
<path style="fill:#95837f; stroke:none;" d="M121.333 174.667L121.667 175.333L121.333 174.667z"/>
<path style="fill:#9f2e1f; stroke:none;" d="M143 174L144 176L145 176L146 174L143 174M161 174L162 175L161 174z"/>
<path style="fill:#4f211a; stroke:none;" d="M171 174L172 175L171 174z"/>
<path style="fill:#e4482c; stroke:none;" d="M198 174L202 177L202 176L198 174z"/>
<path style="fill:#95837f; stroke:none;" d="M217 174L218 175L217 174z"/>
<path style="fill:#e4482c; stroke:none;" d="M218 174L218 176L220 176L218 174z"/>
<path style="fill:#9f2e1f; stroke:none;" d="M219 174L220 175L219 174M229 174L230 175L229 174z"/>
<path style="fill:#4f211a; stroke:none;" d="M122 175L122 177L124 177L124 175L122 175M140 176L140 177L144 176L140 176z"/>
<path style="fill:#9f2e1f; stroke:none;" d="M158 175L158 178L159 178L160 175L158 175M185 175L186 176L185 175z"/>
<path style="fill:#95837f; stroke:none;" d="M198 175L199 176L198 175z"/>
<path style="fill:#9f2e1f; stroke:none;" d="M200 175L201 176L200 175M217 175L218 176L217 175M220 175L221 176L220 175z"/>
<path style="fill:#95837f; stroke:none;" d="M229 175L230 176L229 175z"/>
<path style="fill:#9f2e1f; stroke:none;" d="M142 176L143 177L142 176M187 176L188 177L187 176z"/>
<path style="fill:#95837f; stroke:none;" d="M200 176L201 177L200 176z"/>
<path style="fill:#9f2e1f; stroke:none;" d="M202 176L203 177L202 176z"/>
<path style="fill:#4f211a; stroke:none;" d="M124 177L125 178L124 177M199 177L200 178L199 177z"/>
<path style="fill:#95837f; stroke:none;" d="M201 177L201 178L206 181L201 177z"/>
<path style="fill:#e4482c; stroke:none;" d="M203 177L204 178L203 177z"/>
<path style="fill:#9f2e1f; stroke:none;" d="M214 177L214 179L216 177L214 177z"/>
<path style="fill:#4f211a; stroke:none;" d="M127 178L128 179L127 178z"/>
<path style="fill:#9f2e1f; stroke:none;" d="M190 178L191 179L190 178z"/>
<path style="fill:#e4482c; stroke:none;" d="M198 178L198 180L200 180L198 178z"/>
<path style="fill:#4f211a; stroke:none;" d="M200 178L201 179L200 178z"/>
<path style="fill:#e4482c; stroke:none;" d="M204 178L205 179L204 178z"/>
<path style="fill:#9f2e1f; stroke:none;" d="M205 178L206 179L205 178z"/>
<path style="fill:#e4482c; stroke:none;" d="M215 178L218 187L220 180L215 178z"/>
<path style="fill:#9f2e1f; stroke:none;" d="M217 178L218 179L217 178z"/>
<path style="fill:#95837f; stroke:none;" d="M122.333 179.667L122.667 180.333L122.333 179.667z"/>
<path style="fill:#9f2e1f; stroke:none;" d="M192 179L193 180L192 179z"/>
<path style="fill:#4f211a; stroke:none;" d="M201 179L202 180L201 179z"/>
<path style="fill:#e4482c; stroke:none;" d="M203 179L212 184L207 179L203 179z"/>
<path style="fill:#9f2e1f; stroke:none;" d="M228 179L229 180L228 179z"/>
<path style="fill:#4f211a; stroke:none;" d="M123.333 180.667L123.667 181.333L123.333 180.667M127 180L128 181L127 180z"/>
<path style="fill:#9f2e1f; stroke:none;" d="M155 180L156 181L155 180z"/>
<path style="fill:#e4482c; stroke:none;" d="M200 180L206 195C214.523 190.646 204.823 183.398 200 180z"/>
<path style="fill:#4f211a; stroke:none;" d="M202 180L211 191L216 186L214 188L213 188L202 180z"/>
<path style="fill:#9f2e1f; stroke:none;" d="M207 180L208 181L207 180z"/>
<path style="fill:#95837f; stroke:none;" d="M228 180L229 181L228 180z"/>
<path style="fill:#9f2e1f; stroke:none;" d="M195 181L196 182L195 181M208.667 181.333L209.333 181.667L208.667 181.333M215.333 181.667L215.667 182.333L215.333 181.667M219 181L219 184L220 184L219 181z"/>
<path style="fill:#4f211a; stroke:none;" d="M127 182L128 183L127 182z"/>
<path style="fill:#9f2e1f; stroke:none;" d="M153 182L154 183L153 182M175 182L176 183L175 182M207 182L208 183L207 182M210 182L211 183L210 182z"/>
<path style="fill:#4f211a; stroke:none;" d="M129 183L130 184L129 183z"/>
<path style="fill:#e4482c; stroke:none;" d="M143 183L144 184L143 183z"/>
<path style="fill:#9f2e1f; stroke:none;" d="M208 183L209 184L208 183z"/>
<path style="fill:#95837f; stroke:none;" d="M123 184L124 185L123 184z"/>
<path style="fill:#9f2e1f; stroke:none;" d="M194.667 184.333L195.333 184.667L194.667 184.333M209 184L210 185L209 184z"/>
<path style="fill:#e4482c; stroke:none;" d="M212 184L214 187L212 184z"/>
<path style="fill:#4f211a; stroke:none;" d="M124.333 185.667L124.667 186.333L124.333 185.667z"/>
<path style="fill:#e4482c; stroke:none;" d="M142 185L143 186L142 185z"/>
<path style="fill:#4f211a; stroke:none;" d="M177.333 185.667L177.667 186.333L177.333 185.667z"/>
<path style="fill:#9f2e1f; stroke:none;" d="M190 189L194 185C191.1 185.624 189.927 185.97 190 189z"/>
<path style="fill:#95837f; stroke:none;" d="M227 185L228 186L227 185z"/>
<path style="fill:#9f2e1f; stroke:none;" d="M204 186L205 187L204 186M145 187L146 188L145 187z"/>
<path style="fill:#e4482c; stroke:none;" d="M138 188L137 192L141 188L138 188z"/>
<path style="fill:#9f2e1f; stroke:none;" d="M205 188L206 189L205 188M209 188L210 189L209 188z"/>
<path style="fill:#4f211a; stroke:none;" d="M226.333 188.667L226.667 189.333L226.333 188.667z"/>
<path style="fill:#95837f; stroke:none;" d="M124 189L125 190L124 189z"/>
<path style="fill:#9f2e1f; stroke:none;" d="M144 189L143 191L144 189M189 189L190 190L189 189z"/>
<path style="fill:#4f211a; stroke:none;" d="M215 190L223 202L224 202L226 192L225 192L223 196L215 190z"/>
<path style="fill:#9f2e1f; stroke:none;" d="M150 190L142 202L135 201L141 206L151 200L150 190M205 190L208 193L209 192L209 191L208 190L205 190z"/>
<path style="fill:#95837f; stroke:none;" d="M226.333 190.667L226.667 191.333L226.333 190.667z"/>
<path style="fill:#e4482c; stroke:none;" d="M207 191L208 192L207 191z"/>
<path style="fill:#9f2e1f; stroke:none;" d="M142 192L143 193L142 192z"/>
<path style="fill:#4f211a; stroke:none;" d="M211 192L206 200L217 204L219 200L219 199L211 199L211 198L211 192z"/>
<path style="fill:#95837f; stroke:none;" d="M125.333 193.667L125.667 194.333L125.333 193.667z"/>
<path style="fill:#9f2e1f; stroke:none;" d="M132 193L134 199L135 199L135 193L132 193M140 194L141 195L140 194M142 194L143 195L142 194M225 194L226 195L225 194z"/>
<path style="fill:#e4482c; stroke:none;" d="M146 195L147 196L146 195z"/>
<path style="fill:#95837f; stroke:none;" d="M225 195L226 196L225 195z"/>
<path style="fill:#9f2e1f; stroke:none;" d="M127 196L128 197L127 196M141 196L142 197L141 196z"/>
<path style="fill:#e4482c; stroke:none;" d="M195 196L191 198L192 202L194 202L195 196z"/>
<path style="fill:#9f2e1f; stroke:none;" d="M126 197L127 198L126 197z"/>
<path style="fill:#e4482c; stroke:none;" d="M145 197L146 198L145 197z"/>
<path style="fill:#95837f; stroke:none;" d="M126.333 198.667L126.667 199.333L126.333 198.667M224 200L225 201L224 200z"/>
<path style="fill:#9f2e1f; stroke:none;" d="M130 202L130 204L131 205L133 205L134 201L130 202z"/>
<path style="fill:#e4482c; stroke:none;" d="M207 201L206 203L207 201M209.667 201.333L210.333 201.667L209.667 201.333z"/>
<path style="fill:#9f2e1f; stroke:none;" d="M216 201L217 202L216 201M127 202L128 203L127 202z"/>
<path style="fill:#e4482c; stroke:none;" d="M211.667 202.333L212.333 202.667L211.667 202.333z"/>
<path style="fill:#4f211a; stroke:none;" d="M221 202L216 214L217 214L221 202z"/>
<path style="fill:#95837f; stroke:none;" d="M223 202L224 203L223 202M127 203L128 204L127 203z"/>
<path style="fill:#4f211a; stroke:none;" d="M139 203L140 204L139 203z"/>
<path style="fill:#e4482c; stroke:none;" d="M208 203L209 204L208 203M210 203L211 204L210 203z"/>
<path style="fill:#9f2e1f; stroke:none;" d="M128 204L129 205L128 204M137 207L136 217L148 228L159 229L159 228L149 219L158 225C155.158 216.785 149.156 213.553 150 204L137 207z"/>
<path style="fill:#e4482c; stroke:none;" d="M211 204L212 205L211 204z"/>
<path style="fill:#4f211a; stroke:none;" d="M213 204L212 205L216 210L217 205L213 204z"/>
<path style="fill:#95837f; stroke:none;" d="M222 204L223 205L222 204z"/>
<path style="fill:#e4482c; stroke:none;" d="M209.333 205.667L209.667 206.333L209.333 205.667z"/>
<path style="fill:#9f2e1f; stroke:none;" d="M129 206L130 207L129 206z"/>
<path style="fill:#e4482c; stroke:none;" d="M159 206L160 207L159 206z"/>
<path style="fill:#95837f; stroke:none;" d="M221 206L222 207L221 206z"/>
<path style="fill:#9f2e1f; stroke:none;" d="M132 207L132 209L134 209L132 207z"/>
<path style="fill:#e4482c; stroke:none;" d="M194 207L199 210L194 207z"/>
<path style="fill:#9f2e1f; stroke:none;" d="M220 207L221 208L220 207z"/>
<path style="fill:#e4482c; stroke:none;" d="M202 208L203 213L204 213L206 209L202 208z"/>
<path style="fill:#9f2e1f; stroke:none;" d="M131 209L132 210L131 209z"/>
<path style="fill:#4f211a; stroke:none;" d="M138 209L140 211L138 209z"/>
<path style="fill:#95837f; stroke:none;" d="M219 209L220 210L219 209z"/>
<path style="fill:#4f211a; stroke:none;" d="M141 210L139 217L141 214C143.988 214 143.829 212.747 143 210L141 210M161 210L162 211L161 210M183 220L183 210C177.668 211.77 178.009 217.994 183 220M211 210L210 218L208 217L208 218L209 222C210.91 221.421 212.334 221.015 210 220L212 217L214 218L216 214L214 215L214 214L211 210M137 211L138 212L137 211M157 211L158 212L157 211M207 211L207 217L210 215L210 214L207 211z"/>
<path style="fill:#9f2e1f; stroke:none;" d="M133 212L134 213L133 212z"/>
<path style="fill:#4f211a; stroke:none;" d="M139 212L140 213L139 212z"/>
<path style="fill:#95837f; stroke:none;" d="M217 212L218 213L217 212z"/>
<path style="fill:#9f2e1f; stroke:none;" d="M208 214L209 215L208 214z"/>
<path style="fill:#95837f; stroke:none;" d="M135 215L136 216L135 215z"/>
<path style="fill:#4f211a; stroke:none;" d="M203 215L199 224L200 219L199 219L198 226L195 226L197 231L198 231C202.415 226.653 205.596 221.188 203 215z"/>
<path style="fill:#95837f; stroke:none;" d="M215 215L216 216L215 215z"/>
<path style="fill:#9f2e1f; stroke:none;" d="M213 216L214 217L213 216z"/>
<path style="fill:#4f211a; stroke:none;" d="M137 217C139.66 222.084 143.54 225.256 149 227L149 226L137 217z"/>
<path style="fill:#9f2e1f; stroke:none;" d="M212 217L210 219L210 220C212.251 219.527 213.118 219.14 212 217z"/>
<path style="fill:#95837f; stroke:none;" d="M137 218L138 219L137 218z"/>
<path style="fill:#4f211a; stroke:none;" d="M141 218L142 219L141 218M188 218L188 223C183.904 222.311 178.944 227.242 184.318 229.303C187.142 230.386 190.613 228.251 193 227L193 226L190 218L188 218z"/>
<path style="fill:#95837f; stroke:none;" d="M213 218L214 219L213 218z"/>
<path style="fill:#4f211a; stroke:none;" d="M145 219L147 221L145 219z"/>
<path style="fill:#e4482c; stroke:none;" d="M171 220L172 221L171 220z"/>
<path style="fill:#95837f; stroke:none;" d="M139 221L140 222L139 221z"/>
<path style="fill:#4f211a; stroke:none;" d="M173 221L170 223L174 225L173 221z"/>
<path style="fill:#95837f; stroke:none;" d="M140 222L141 223L140 222z"/>
<path style="fill:#4f211a; stroke:none;" d="M146 222L147 223L146 222M207 222L207 224L209 222L207 222z"/>
<path style="fill:#e4482c; stroke:none;" d="M191 223L192 224L191 223M205.333 223.667L205.667 224.333L205.333 223.667z"/>
<path style="fill:#95837f; stroke:none;" d="M208 223L209 224L208 223M143 224L144 225L143 224z"/>
<path style="fill:#e4482c; stroke:none;" d="M160 224L160 226L162 226L162 224L160 224M150 225L150 226L156 228L156 227L150 225z"/>
<path style="fill:#95837f; stroke:none;" d="M205 225L206 226L205 225M146 226L147 227L146 226z"/>
<path style="fill:#4f211a; stroke:none;" d="M203 226L204 227L203 226z"/>
<path style="fill:#95837f; stroke:none;" d="M204 226L205 227L204 226z"/>
<path style="fill:#4f211a; stroke:none;" d="M149 227L150 228L149 227z"/>
<path style="fill:#e4482c; stroke:none;" d="M167 229L170 228L167 229M173 227L174 228L173 227z"/>
<path style="fill:#4f211a; stroke:none;" d="M150 228L151 229L150 228M165 229C166.034 233.207 167.683 234.659 172 235L169 232L169 231L174 231L165 229M175 228L176 229L175 228z"/>
<path style="fill:#95837f; stroke:none;" d="M201 228L202 229L201 228M151 229L152 230L151 229z"/>
<path style="fill:#4f211a; stroke:none;" d="M176 229L180 236L176 229z"/>
<path style="fill:#e4482c; stroke:none;" d="M179 229L180 230L179 229M190 229L189 233L190 229z"/>
<path style="fill:#4f211a; stroke:none;" d="M192 229L195 232L192 229z"/>
<path style="fill:#9f2e1f; stroke:none;" d="M199 229L200 230L199 229M153 230L154 231L153 230z"/>
<path style="fill:#e4482c; stroke:none;" d="M163 230L164 231L163 230M181 230L183 232L183 230L181 230z"/>
<path style="fill:#95837f; stroke:none;" d="M154 231L155 232L154 231z"/>
<path style="fill:#9f2e1f; stroke:none;" d="M158 231L157 233L159 233L158 231z"/>
<path style="fill:#e4482c; stroke:none;" d="M170 231L171 232L170 231z"/>
<path style="fill:#95837f; stroke:none;" d="M196 231L197 232L196 231z"/>
<path style="fill:#e4482c; stroke:none;" d="M173 232L178 236L173 232M180 232L181 233L180 232z"/>
<path style="fill:#95837f; stroke:none;" d="M192 232L193 233L192 232M160 233L161 234L160 233z"/>
<path style="fill:#9f2e1f; stroke:none;" d="M161 233L162 234L161 233z"/>
<path style="fill:#4f211a; stroke:none;" d="M186 233L187 234L186 233z"/>
<path style="fill:#95837f; stroke:none;" d="M165 234L166 235L165 234M184 234L185 235L184 234M169.667 235.333L170.333 235.667L169.667 235.333M180 235L181 236L180 235z"/>
</svg>
